M48
; DRILL file {KiCad 7.0.5} date Sat Aug 19 00:15:35 2023
; FORMAT={-:-/ absolute / metric / decimal}
; #@! TF.CreationDate,2023-08-19T00:15:35-06:00
; #@! TF.GenerationSoftware,Kicad,Pcbnew,7.0.5
; #@! TF.FileFunction,MixedPlating,1,2
FMAT,2
METRIC
; #@! TA.AperFunction,Plated,PTH,ViaDrill
T1C0.400
; #@! TA.AperFunction,Plated,PTH,ComponentDrill
T2C0.700
; #@! TA.AperFunction,Plated,PTH,ComponentDrill
T3C1.000
; #@! TA.AperFunction,Plated,PTH,ComponentDrill
T4C1.300
; #@! TA.AperFunction,NonPlated,NPTH,ComponentDrill
T5C2.200
%
G90
G05
T1
X26.5Y-91.93
X27.33Y-74.77
X27.78Y-91.65
X29.72Y-86.12
X31.96Y-70.85
X32.1Y-69.6
X32.29Y-74.25
X32.54Y-92.18
X32.66Y-82.92
X32.69Y-81.49
X32.69Y-84.24
X34.21Y-86.88
X35.12Y-92.17
X35.67Y-78.89
X37.59Y-92.2
X37.86Y-86.61
X37.88Y-81.25
X38.0Y-75.41
X38.46Y-66.9
X39.3Y-77.19
X39.72Y-73.93
X40.22Y-92.17
X40.441Y-84.09
X41.16Y-77.91
X41.24Y-66.89
X41.495Y-81.565
X43.53Y-86.99
X43.54Y-71.95
X43.63Y-80.49
X43.93Y-65.75
X45.0Y-89.28
X45.41Y-94.01
X46.4Y-77.23
X46.55Y-75.76
X46.61Y-78.98
X46.976Y-67.831
X46.99Y-68.83
X46.999Y-82.48
X47.67Y-76.44
X47.75Y-83.35
X48.37Y-84.85
X48.81Y-86.02
X48.88Y-87.11
X49.0Y-74.16
X49.75Y-74.97
X49.79Y-78.69
X49.83Y-83.35
X50.63Y-70.59
X50.98Y-76.62
X51.25Y-79.16
X51.615Y-75.585
X51.7Y-74.513
X52.18Y-70.73
X53.07Y-94.17
X53.08Y-64.02
X54.43Y-65.01
X54.44Y-67.17
X54.72Y-80.97
X54.79Y-82.24
X54.87Y-93.99
X55.05Y-92.02
X55.31Y-77.76
X56.34Y-71.67
X56.89Y-74.09
X58.42Y-88.24
X61.89Y-72.83
X62.68Y-92.17
X63.79Y-87.44
X64.51Y-73.95
X65.24Y-92.19
X65.66Y-79.21
X66.78Y-86.61
X67.77Y-64.0
X68.75Y-71.69
X69.05Y-85.47
X70.61Y-79.74
X70.62Y-85.46
X71.58Y-91.68
T2
X71.82Y-70.575
X71.82Y-75.425
T3
X23.78Y-86.59
X23.78Y-89.13
X23.83Y-68.81
X23.83Y-71.35
X23.83Y-73.89
X30.0Y-64.0
X30.0Y-94.0
X32.54Y-64.0
X32.54Y-94.0
X35.08Y-64.0
X35.08Y-94.0
X37.62Y-64.0
X37.62Y-94.0
X40.16Y-64.0
X40.16Y-94.0
X42.7Y-64.0
X42.7Y-94.0
X45.24Y-64.0
X47.78Y-64.0
X50.32Y-64.0
X57.6Y-64.0
X57.6Y-94.0
X60.14Y-64.0
X60.14Y-94.0
X62.68Y-64.0
X62.68Y-94.0
X65.22Y-64.0
X65.22Y-94.0
X67.76Y-94.0
X74.0Y-81.5
X74.0Y-84.04
X74.0Y-86.58
X74.0Y-89.12
T4
X74.5Y-69.375
X74.5Y-76.625
T5
X24.0Y-64.0
X24.0Y-94.0
X74.0Y-64.0
X74.0Y-94.0
T0
M30
