%TF.GenerationSoftware,KiCad,Pcbnew,7.0.5*%
%TF.CreationDate,2023-08-18T22:50:30-06:00*%
%TF.ProjectId,STM32PlayBoard_v1,53544d33-3250-46c6-9179-426f6172645f,rev?*%
%TF.SameCoordinates,Original*%
%TF.FileFunction,Soldermask,Top*%
%TF.FilePolarity,Negative*%
%FSLAX46Y46*%
G04 Gerber Fmt 4.6, Leading zero omitted, Abs format (unit mm)*
G04 Created by KiCad (PCBNEW 7.0.5) date 2023-08-18 22:50:30*
%MOMM*%
%LPD*%
G01*
G04 APERTURE LIST*
G04 Aperture macros list*
%AMRoundRect*
0 Rectangle with rounded corners*
0 $1 Rounding radius*
0 $2 $3 $4 $5 $6 $7 $8 $9 X,Y pos of 4 corners*
0 Add a 4 corners polygon primitive as box body*
4,1,4,$2,$3,$4,$5,$6,$7,$8,$9,$2,$3,0*
0 Add four circle primitives for the rounded corners*
1,1,$1+$1,$2,$3*
1,1,$1+$1,$4,$5*
1,1,$1+$1,$6,$7*
1,1,$1+$1,$8,$9*
0 Add four rect primitives between the rounded corners*
20,1,$1+$1,$2,$3,$4,$5,0*
20,1,$1+$1,$4,$5,$6,$7,0*
20,1,$1+$1,$6,$7,$8,$9,0*
20,1,$1+$1,$8,$9,$2,$3,0*%
G04 Aperture macros list end*
%ADD10RoundRect,0.200000X-0.275000X0.200000X-0.275000X-0.200000X0.275000X-0.200000X0.275000X0.200000X0*%
%ADD11RoundRect,0.140000X-0.170000X0.140000X-0.170000X-0.140000X0.170000X-0.140000X0.170000X0.140000X0*%
%ADD12RoundRect,0.218750X0.218750X0.381250X-0.218750X0.381250X-0.218750X-0.381250X0.218750X-0.381250X0*%
%ADD13R,1.700000X1.700000*%
%ADD14O,1.700000X1.700000*%
%ADD15RoundRect,0.250000X0.650000X-0.325000X0.650000X0.325000X-0.650000X0.325000X-0.650000X-0.325000X0*%
%ADD16RoundRect,0.200000X-0.200000X-0.275000X0.200000X-0.275000X0.200000X0.275000X-0.200000X0.275000X0*%
%ADD17RoundRect,0.140000X0.140000X0.170000X-0.140000X0.170000X-0.140000X-0.170000X0.140000X-0.170000X0*%
%ADD18RoundRect,0.250000X-0.650000X0.325000X-0.650000X-0.325000X0.650000X-0.325000X0.650000X0.325000X0*%
%ADD19R,1.400000X1.150000*%
%ADD20RoundRect,0.150000X0.150000X-0.587500X0.150000X0.587500X-0.150000X0.587500X-0.150000X-0.587500X0*%
%ADD21RoundRect,0.140000X0.170000X-0.140000X0.170000X0.140000X-0.170000X0.140000X-0.170000X-0.140000X0*%
%ADD22RoundRect,0.218750X-0.256250X0.218750X-0.256250X-0.218750X0.256250X-0.218750X0.256250X0.218750X0*%
%ADD23C,2.200000*%
%ADD24RoundRect,0.250000X0.250000X0.475000X-0.250000X0.475000X-0.250000X-0.475000X0.250000X-0.475000X0*%
%ADD25R,1.000000X0.750000*%
%ADD26RoundRect,0.140000X-0.140000X-0.170000X0.140000X-0.170000X0.140000X0.170000X-0.140000X0.170000X0*%
%ADD27RoundRect,0.218750X-0.218750X-0.381250X0.218750X-0.381250X0.218750X0.381250X-0.218750X0.381250X0*%
%ADD28R,1.250000X0.400000*%
%ADD29C,1.300000*%
%ADD30C,1.900000*%
%ADD31RoundRect,0.250000X0.475000X-0.250000X0.475000X0.250000X-0.475000X0.250000X-0.475000X-0.250000X0*%
%ADD32RoundRect,0.218750X-0.218750X-0.256250X0.218750X-0.256250X0.218750X0.256250X-0.218750X0.256250X0*%
%ADD33RoundRect,0.200000X0.275000X-0.200000X0.275000X0.200000X-0.275000X0.200000X-0.275000X-0.200000X0*%
%ADD34R,2.000000X1.500000*%
%ADD35R,2.000000X3.800000*%
%ADD36RoundRect,0.150000X0.512500X0.150000X-0.512500X0.150000X-0.512500X-0.150000X0.512500X-0.150000X0*%
%ADD37RoundRect,0.225000X0.375000X-0.225000X0.375000X0.225000X-0.375000X0.225000X-0.375000X-0.225000X0*%
%ADD38RoundRect,0.075000X-0.662500X-0.075000X0.662500X-0.075000X0.662500X0.075000X-0.662500X0.075000X0*%
%ADD39RoundRect,0.075000X-0.075000X-0.662500X0.075000X-0.662500X0.075000X0.662500X-0.075000X0.662500X0*%
G04 APERTURE END LIST*
D10*
%TO.C,R6*%
X60390000Y-80495000D03*
X60390000Y-82145000D03*
%TD*%
D11*
%TO.C,C12*%
X36900000Y-79620000D03*
X36900000Y-80580000D03*
%TD*%
%TO.C,C6*%
X55290000Y-73180000D03*
X55290000Y-74140000D03*
%TD*%
D12*
%TO.C,FB2*%
X40762500Y-79600000D03*
X38637500Y-79600000D03*
%TD*%
D13*
%TO.C,J6*%
X30000000Y-64000000D03*
D14*
X32540000Y-64000000D03*
X35080000Y-64000000D03*
X37620000Y-64000000D03*
X40160000Y-64000000D03*
X42700000Y-64000000D03*
X45240000Y-64000000D03*
X47780000Y-64000000D03*
X50320000Y-64000000D03*
%TD*%
D15*
%TO.C,C2*%
X41810000Y-90215000D03*
X41810000Y-87265000D03*
%TD*%
D16*
%TO.C,R5*%
X37575000Y-85020000D03*
X39225000Y-85020000D03*
%TD*%
D10*
%TO.C,R7*%
X57280000Y-80525000D03*
X57280000Y-82175000D03*
%TD*%
D17*
%TO.C,C7*%
X52020000Y-82610000D03*
X51060000Y-82610000D03*
%TD*%
D10*
%TO.C,R3*%
X29540000Y-69735000D03*
X29540000Y-71385000D03*
%TD*%
D18*
%TO.C,C4*%
X56060000Y-87385000D03*
X56060000Y-90335000D03*
%TD*%
D19*
%TO.C,Y1*%
X36200000Y-74300000D03*
X34000000Y-74300000D03*
X34000000Y-75900000D03*
X36200000Y-75900000D03*
%TD*%
D20*
%TO.C,Q1*%
X27080000Y-89955000D03*
X28980000Y-89955000D03*
X28030000Y-88080000D03*
%TD*%
D13*
%TO.C,J2*%
X23830000Y-68810000D03*
D14*
X23830000Y-71350000D03*
X23830000Y-73890000D03*
%TD*%
D21*
%TO.C,C3*%
X44020000Y-90610000D03*
X44020000Y-89650000D03*
%TD*%
D22*
%TO.C,D2*%
X62350000Y-87462500D03*
X62350000Y-89037500D03*
%TD*%
D23*
%TO.C,H2*%
X24000000Y-94000000D03*
%TD*%
D24*
%TO.C,C5*%
X42310000Y-71790000D03*
X40410000Y-71790000D03*
%TD*%
D13*
%TO.C,J8*%
X30000000Y-94000000D03*
D14*
X32540000Y-94000000D03*
X35080000Y-94000000D03*
X37620000Y-94000000D03*
X40160000Y-94000000D03*
X42700000Y-94000000D03*
%TD*%
D25*
%TO.C,S1*%
X24000000Y-78125000D03*
X30000000Y-78125000D03*
X24000000Y-81875000D03*
X30000000Y-81875000D03*
%TD*%
D26*
%TO.C,C8*%
X46020000Y-70560000D03*
X46980000Y-70560000D03*
%TD*%
D27*
%TO.C,FB1*%
X37317500Y-90210000D03*
X39442500Y-90210000D03*
%TD*%
D23*
%TO.C,H1*%
X74000000Y-64000000D03*
%TD*%
D28*
%TO.C,J3*%
X71300000Y-74300000D03*
X71300000Y-73650000D03*
X71300000Y-73000000D03*
X71300000Y-72350000D03*
X71300000Y-71700000D03*
D29*
X71820000Y-75425000D03*
X71820000Y-70575000D03*
D30*
X74500000Y-76625000D03*
X74500000Y-69375000D03*
%TD*%
D31*
%TO.C,C1*%
X34940000Y-90190000D03*
X34940000Y-88290000D03*
%TD*%
D11*
%TO.C,C15*%
X38230000Y-76440000D03*
X38230000Y-77400000D03*
%TD*%
D32*
%TO.C,D3*%
X34162500Y-85040000D03*
X35737500Y-85040000D03*
%TD*%
D21*
%TO.C,C14*%
X38270000Y-74380000D03*
X38270000Y-73420000D03*
%TD*%
D33*
%TO.C,R1*%
X59800000Y-89057500D03*
X59800000Y-87407500D03*
%TD*%
%TO.C,R2*%
X32700000Y-79655000D03*
X32700000Y-78005000D03*
%TD*%
D23*
%TO.C,H3*%
X24000000Y-64000000D03*
%TD*%
D21*
%TO.C,C10*%
X42500000Y-78450000D03*
X42500000Y-77490000D03*
%TD*%
D10*
%TO.C,R4*%
X60420000Y-73375000D03*
X60420000Y-75025000D03*
%TD*%
D13*
%TO.C,J4*%
X74000000Y-81500000D03*
D14*
X74000000Y-84040000D03*
X74000000Y-86580000D03*
X74000000Y-89120000D03*
%TD*%
D21*
%TO.C,C13*%
X34650000Y-78980000D03*
X34650000Y-78020000D03*
%TD*%
D34*
%TO.C,U1*%
X46750000Y-86000000D03*
X46750000Y-88300000D03*
D35*
X53050000Y-88300000D03*
D34*
X46750000Y-90600000D03*
%TD*%
D13*
%TO.C,J1*%
X23780000Y-86590000D03*
D14*
X23780000Y-89130000D03*
%TD*%
D36*
%TO.C,U3*%
X65617500Y-77270000D03*
X65617500Y-76320000D03*
X65617500Y-75370000D03*
X63342500Y-75370000D03*
X63342500Y-76320000D03*
X63342500Y-77270000D03*
%TD*%
D11*
%TO.C,C11*%
X42500000Y-79600000D03*
X42500000Y-80560000D03*
%TD*%
D37*
%TO.C,D1*%
X31870000Y-90247500D03*
X31870000Y-86947500D03*
%TD*%
D23*
%TO.C,H4*%
X74000000Y-94000000D03*
%TD*%
D13*
%TO.C,J5*%
X57600000Y-64000000D03*
D14*
X60140000Y-64000000D03*
X62680000Y-64000000D03*
X65220000Y-64000000D03*
%TD*%
D17*
%TO.C,C9*%
X42480000Y-73800000D03*
X41520000Y-73800000D03*
%TD*%
D13*
%TO.C,J7*%
X57600000Y-94000000D03*
D14*
X60140000Y-94000000D03*
X62680000Y-94000000D03*
X65220000Y-94000000D03*
X67760000Y-94000000D03*
%TD*%
D38*
%TO.C,U2*%
X44837500Y-73850000D03*
X44837500Y-74350000D03*
X44837500Y-74850000D03*
X44837500Y-75350000D03*
X44837500Y-75850000D03*
X44837500Y-76350000D03*
X44837500Y-76850000D03*
X44837500Y-77350000D03*
X44837500Y-77850000D03*
X44837500Y-78350000D03*
X44837500Y-78850000D03*
X44837500Y-79350000D03*
D39*
X46250000Y-80762500D03*
X46750000Y-80762500D03*
X47250000Y-80762500D03*
X47750000Y-80762500D03*
X48250000Y-80762500D03*
X48750000Y-80762500D03*
X49250000Y-80762500D03*
X49750000Y-80762500D03*
X50250000Y-80762500D03*
X50750000Y-80762500D03*
X51250000Y-80762500D03*
X51750000Y-80762500D03*
D38*
X53162500Y-79350000D03*
X53162500Y-78850000D03*
X53162500Y-78350000D03*
X53162500Y-77850000D03*
X53162500Y-77350000D03*
X53162500Y-76850000D03*
X53162500Y-76350000D03*
X53162500Y-75850000D03*
X53162500Y-75350000D03*
X53162500Y-74850000D03*
X53162500Y-74350000D03*
X53162500Y-73850000D03*
D39*
X51750000Y-72437500D03*
X51250000Y-72437500D03*
X50750000Y-72437500D03*
X50250000Y-72437500D03*
X49750000Y-72437500D03*
X49250000Y-72437500D03*
X48750000Y-72437500D03*
X48250000Y-72437500D03*
X47750000Y-72437500D03*
X47250000Y-72437500D03*
X46750000Y-72437500D03*
X46250000Y-72437500D03*
%TD*%
M02*
