%TF.GenerationSoftware,KiCad,Pcbnew,7.0.5*%
%TF.CreationDate,2023-08-18T22:50:30-06:00*%
%TF.ProjectId,STM32PlayBoard_v1,53544d33-3250-46c6-9179-426f6172645f,rev?*%
%TF.SameCoordinates,Original*%
%TF.FileFunction,Copper,L1,Top*%
%TF.FilePolarity,Positive*%
%FSLAX46Y46*%
G04 Gerber Fmt 4.6, Leading zero omitted, Abs format (unit mm)*
G04 Created by KiCad (PCBNEW 7.0.5) date 2023-08-18 22:50:30*
%MOMM*%
%LPD*%
G01*
G04 APERTURE LIST*
G04 Aperture macros list*
%AMRoundRect*
0 Rectangle with rounded corners*
0 $1 Rounding radius*
0 $2 $3 $4 $5 $6 $7 $8 $9 X,Y pos of 4 corners*
0 Add a 4 corners polygon primitive as box body*
4,1,4,$2,$3,$4,$5,$6,$7,$8,$9,$2,$3,0*
0 Add four circle primitives for the rounded corners*
1,1,$1+$1,$2,$3*
1,1,$1+$1,$4,$5*
1,1,$1+$1,$6,$7*
1,1,$1+$1,$8,$9*
0 Add four rect primitives between the rounded corners*
20,1,$1+$1,$2,$3,$4,$5,0*
20,1,$1+$1,$4,$5,$6,$7,0*
20,1,$1+$1,$6,$7,$8,$9,0*
20,1,$1+$1,$8,$9,$2,$3,0*%
G04 Aperture macros list end*
%TA.AperFunction,SMDPad,CuDef*%
%ADD10RoundRect,0.200000X-0.275000X0.200000X-0.275000X-0.200000X0.275000X-0.200000X0.275000X0.200000X0*%
%TD*%
%TA.AperFunction,SMDPad,CuDef*%
%ADD11RoundRect,0.140000X-0.170000X0.140000X-0.170000X-0.140000X0.170000X-0.140000X0.170000X0.140000X0*%
%TD*%
%TA.AperFunction,SMDPad,CuDef*%
%ADD12RoundRect,0.218750X0.218750X0.381250X-0.218750X0.381250X-0.218750X-0.381250X0.218750X-0.381250X0*%
%TD*%
%TA.AperFunction,ComponentPad*%
%ADD13R,1.700000X1.700000*%
%TD*%
%TA.AperFunction,ComponentPad*%
%ADD14O,1.700000X1.700000*%
%TD*%
%TA.AperFunction,SMDPad,CuDef*%
%ADD15RoundRect,0.250000X0.650000X-0.325000X0.650000X0.325000X-0.650000X0.325000X-0.650000X-0.325000X0*%
%TD*%
%TA.AperFunction,SMDPad,CuDef*%
%ADD16RoundRect,0.200000X-0.200000X-0.275000X0.200000X-0.275000X0.200000X0.275000X-0.200000X0.275000X0*%
%TD*%
%TA.AperFunction,SMDPad,CuDef*%
%ADD17RoundRect,0.140000X0.140000X0.170000X-0.140000X0.170000X-0.140000X-0.170000X0.140000X-0.170000X0*%
%TD*%
%TA.AperFunction,SMDPad,CuDef*%
%ADD18RoundRect,0.250000X-0.650000X0.325000X-0.650000X-0.325000X0.650000X-0.325000X0.650000X0.325000X0*%
%TD*%
%TA.AperFunction,SMDPad,CuDef*%
%ADD19R,1.400000X1.150000*%
%TD*%
%TA.AperFunction,SMDPad,CuDef*%
%ADD20RoundRect,0.150000X0.150000X-0.587500X0.150000X0.587500X-0.150000X0.587500X-0.150000X-0.587500X0*%
%TD*%
%TA.AperFunction,SMDPad,CuDef*%
%ADD21RoundRect,0.140000X0.170000X-0.140000X0.170000X0.140000X-0.170000X0.140000X-0.170000X-0.140000X0*%
%TD*%
%TA.AperFunction,SMDPad,CuDef*%
%ADD22RoundRect,0.218750X-0.256250X0.218750X-0.256250X-0.218750X0.256250X-0.218750X0.256250X0.218750X0*%
%TD*%
%TA.AperFunction,SMDPad,CuDef*%
%ADD23RoundRect,0.250000X0.250000X0.475000X-0.250000X0.475000X-0.250000X-0.475000X0.250000X-0.475000X0*%
%TD*%
%TA.AperFunction,SMDPad,CuDef*%
%ADD24R,1.000000X0.750000*%
%TD*%
%TA.AperFunction,SMDPad,CuDef*%
%ADD25RoundRect,0.140000X-0.140000X-0.170000X0.140000X-0.170000X0.140000X0.170000X-0.140000X0.170000X0*%
%TD*%
%TA.AperFunction,SMDPad,CuDef*%
%ADD26RoundRect,0.218750X-0.218750X-0.381250X0.218750X-0.381250X0.218750X0.381250X-0.218750X0.381250X0*%
%TD*%
%TA.AperFunction,SMDPad,CuDef*%
%ADD27R,1.250000X0.400000*%
%TD*%
%TA.AperFunction,ComponentPad*%
%ADD28C,1.300000*%
%TD*%
%TA.AperFunction,ComponentPad*%
%ADD29C,1.900000*%
%TD*%
%TA.AperFunction,SMDPad,CuDef*%
%ADD30RoundRect,0.250000X0.475000X-0.250000X0.475000X0.250000X-0.475000X0.250000X-0.475000X-0.250000X0*%
%TD*%
%TA.AperFunction,SMDPad,CuDef*%
%ADD31RoundRect,0.218750X-0.218750X-0.256250X0.218750X-0.256250X0.218750X0.256250X-0.218750X0.256250X0*%
%TD*%
%TA.AperFunction,SMDPad,CuDef*%
%ADD32RoundRect,0.200000X0.275000X-0.200000X0.275000X0.200000X-0.275000X0.200000X-0.275000X-0.200000X0*%
%TD*%
%TA.AperFunction,SMDPad,CuDef*%
%ADD33R,2.000000X1.500000*%
%TD*%
%TA.AperFunction,SMDPad,CuDef*%
%ADD34R,2.000000X3.800000*%
%TD*%
%TA.AperFunction,SMDPad,CuDef*%
%ADD35RoundRect,0.150000X0.512500X0.150000X-0.512500X0.150000X-0.512500X-0.150000X0.512500X-0.150000X0*%
%TD*%
%TA.AperFunction,SMDPad,CuDef*%
%ADD36RoundRect,0.225000X0.375000X-0.225000X0.375000X0.225000X-0.375000X0.225000X-0.375000X-0.225000X0*%
%TD*%
%TA.AperFunction,SMDPad,CuDef*%
%ADD37RoundRect,0.075000X-0.662500X-0.075000X0.662500X-0.075000X0.662500X0.075000X-0.662500X0.075000X0*%
%TD*%
%TA.AperFunction,SMDPad,CuDef*%
%ADD38RoundRect,0.075000X-0.075000X-0.662500X0.075000X-0.662500X0.075000X0.662500X-0.075000X0.662500X0*%
%TD*%
%TA.AperFunction,ViaPad*%
%ADD39C,0.800000*%
%TD*%
%TA.AperFunction,Conductor*%
%ADD40C,0.500000*%
%TD*%
%TA.AperFunction,Conductor*%
%ADD41C,0.300000*%
%TD*%
%TA.AperFunction,Conductor*%
%ADD42C,0.200000*%
%TD*%
%TA.AperFunction,Conductor*%
%ADD43C,0.250000*%
%TD*%
G04 APERTURE END LIST*
D10*
%TO.P,R6,1*%
%TO.N,+3.3V*%
X60390000Y-80495000D03*
%TO.P,R6,2*%
%TO.N,ISC2_SDA*%
X60390000Y-82145000D03*
%TD*%
D11*
%TO.P,C12,1*%
%TO.N,+3.3V*%
X36900000Y-79620000D03*
%TO.P,C12,2*%
%TO.N,GND*%
X36900000Y-80580000D03*
%TD*%
%TO.P,C6,1*%
%TO.N,+3.3V*%
X55290000Y-73180000D03*
%TO.P,C6,2*%
%TO.N,GND*%
X55290000Y-74140000D03*
%TD*%
D12*
%TO.P,FB2,1*%
%TO.N,+3.3VA*%
X40762500Y-79600000D03*
%TO.P,FB2,2*%
%TO.N,+3.3V*%
X38637500Y-79600000D03*
%TD*%
D13*
%TO.P,J6,1,Pin_1*%
%TO.N,+3.3V*%
X30000000Y-64000000D03*
D14*
%TO.P,J6,2,Pin_2*%
%TO.N,PB6*%
X32540000Y-64000000D03*
%TO.P,J6,3,Pin_3*%
%TO.N,PB5*%
X35080000Y-64000000D03*
%TO.P,J6,4,Pin_4*%
%TO.N,PB4*%
X37620000Y-64000000D03*
%TO.P,J6,5,Pin_5*%
%TO.N,PB3*%
X40160000Y-64000000D03*
%TO.P,J6,6,Pin_6*%
%TO.N,ADC1_IN0*%
X42700000Y-64000000D03*
%TO.P,J6,7,Pin_7*%
%TO.N,TIM1_CH1*%
X45240000Y-64000000D03*
%TO.P,J6,8,Pin_8*%
%TO.N,TIM1_CH2*%
X47780000Y-64000000D03*
%TO.P,J6,9,Pin_9*%
%TO.N,GND*%
X50320000Y-64000000D03*
%TD*%
D15*
%TO.P,C2,1*%
%TO.N,Net-(U1-VI)*%
X41810000Y-90215000D03*
%TO.P,C2,2*%
%TO.N,GND*%
X41810000Y-87265000D03*
%TD*%
D16*
%TO.P,R5,1*%
%TO.N,Net-(D3-A)*%
X37575000Y-85020000D03*
%TO.P,R5,2*%
%TO.N,Status_LED*%
X39225000Y-85020000D03*
%TD*%
D10*
%TO.P,R7,1*%
%TO.N,+3.3V*%
X57280000Y-80525000D03*
%TO.P,R7,2*%
%TO.N,I2C2_SCL*%
X57280000Y-82175000D03*
%TD*%
D17*
%TO.P,C7,1*%
%TO.N,+3.3V*%
X52020000Y-82610000D03*
%TO.P,C7,2*%
%TO.N,GND*%
X51060000Y-82610000D03*
%TD*%
D10*
%TO.P,R3,1*%
%TO.N,BOOT0*%
X29540000Y-69735000D03*
%TO.P,R3,2*%
%TO.N,Net-(J2-Pin_2)*%
X29540000Y-71385000D03*
%TD*%
D18*
%TO.P,C4,1*%
%TO.N,+3.3V*%
X56060000Y-87385000D03*
%TO.P,C4,2*%
%TO.N,GND*%
X56060000Y-90335000D03*
%TD*%
D19*
%TO.P,Y1,1,1*%
%TO.N,HSE_OSC_IN*%
X36200000Y-74300000D03*
%TO.P,Y1,2,2*%
%TO.N,GND*%
X34000000Y-74300000D03*
%TO.P,Y1,3,3*%
%TO.N,HSE_OSC_OUT*%
X34000000Y-75900000D03*
%TO.P,Y1,4,4*%
%TO.N,GND*%
X36200000Y-75900000D03*
%TD*%
D20*
%TO.P,Q1,1,G*%
%TO.N,GND*%
X27080000Y-89955000D03*
%TO.P,Q1,2,S*%
%TO.N,Net-(D1-K)*%
X28980000Y-89955000D03*
%TO.P,Q1,3,D*%
%TO.N,VCC*%
X28030000Y-88080000D03*
%TD*%
D13*
%TO.P,J2,1,Pin_1*%
%TO.N,+3.3V*%
X23830000Y-68810000D03*
D14*
%TO.P,J2,2,Pin_2*%
%TO.N,Net-(J2-Pin_2)*%
X23830000Y-71350000D03*
%TO.P,J2,3,Pin_3*%
%TO.N,GND*%
X23830000Y-73890000D03*
%TD*%
D21*
%TO.P,C3,1*%
%TO.N,Net-(U1-VI)*%
X44020000Y-90610000D03*
%TO.P,C3,2*%
%TO.N,GND*%
X44020000Y-89650000D03*
%TD*%
D22*
%TO.P,D2,1,K*%
%TO.N,GND*%
X62350000Y-87462500D03*
%TO.P,D2,2,A*%
%TO.N,Net-(D2-A)*%
X62350000Y-89037500D03*
%TD*%
D23*
%TO.P,C5,1*%
%TO.N,+3.3V*%
X42310000Y-71790000D03*
%TO.P,C5,2*%
%TO.N,GND*%
X40410000Y-71790000D03*
%TD*%
D13*
%TO.P,J8,1,Pin_1*%
%TO.N,+3.3V*%
X30000000Y-94000000D03*
D14*
%TO.P,J8,2,Pin_2*%
%TO.N,SPI1_NSS*%
X32540000Y-94000000D03*
%TO.P,J8,3,Pin_3*%
%TO.N,SPI1_SCK*%
X35080000Y-94000000D03*
%TO.P,J8,4,Pin_4*%
%TO.N,SPI1_MISO*%
X37620000Y-94000000D03*
%TO.P,J8,5,Pin_5*%
%TO.N,SPI1_MOSI*%
X40160000Y-94000000D03*
%TO.P,J8,6,Pin_6*%
%TO.N,GND*%
X42700000Y-94000000D03*
%TD*%
D24*
%TO.P,S1,A1,COM_1*%
%TO.N,unconnected-(S1-COM_1-PadA1)*%
X24000000Y-78125000D03*
%TO.P,S1,B1,COM_2*%
%TO.N,nRST*%
X30000000Y-78125000D03*
%TO.P,S1,C1,NO_1*%
%TO.N,unconnected-(S1-NO_1-PadC1)*%
X24000000Y-81875000D03*
%TO.P,S1,D1,NO_2*%
%TO.N,GND*%
X30000000Y-81875000D03*
%TD*%
D25*
%TO.P,C8,1*%
%TO.N,+3.3V*%
X46020000Y-70560000D03*
%TO.P,C8,2*%
%TO.N,GND*%
X46980000Y-70560000D03*
%TD*%
D26*
%TO.P,FB1,1*%
%TO.N,Net-(D1-K)*%
X37317500Y-90210000D03*
%TO.P,FB1,2*%
%TO.N,Net-(U1-VI)*%
X39442500Y-90210000D03*
%TD*%
D27*
%TO.P,J3,1,VBUS*%
%TO.N,VBUS*%
X71300000Y-74300000D03*
%TO.P,J3,2,D-*%
%TO.N,USB_Conn_D-*%
X71300000Y-73650000D03*
%TO.P,J3,3,D+*%
%TO.N,USB_Conn_D+*%
X71300000Y-73000000D03*
%TO.P,J3,4,ID*%
%TO.N,unconnected-(J3-ID-Pad4)*%
X71300000Y-72350000D03*
%TO.P,J3,5,GND*%
%TO.N,GND*%
X71300000Y-71700000D03*
D28*
%TO.P,J3,MH1*%
%TO.N,N/C*%
X71820000Y-75425000D03*
%TO.P,J3,MH2*%
X71820000Y-70575000D03*
D29*
%TO.P,J3,MH3*%
X74500000Y-76625000D03*
%TO.P,J3,MH4*%
X74500000Y-69375000D03*
%TD*%
D30*
%TO.P,C1,1*%
%TO.N,Net-(D1-K)*%
X34940000Y-90190000D03*
%TO.P,C1,2*%
%TO.N,GND*%
X34940000Y-88290000D03*
%TD*%
D11*
%TO.P,C15,1*%
%TO.N,HSE_OSC_OUT*%
X38230000Y-76440000D03*
%TO.P,C15,2*%
%TO.N,GND*%
X38230000Y-77400000D03*
%TD*%
D31*
%TO.P,D3,1,K*%
%TO.N,GND*%
X34162500Y-85040000D03*
%TO.P,D3,2,A*%
%TO.N,Net-(D3-A)*%
X35737500Y-85040000D03*
%TD*%
D21*
%TO.P,C14,1*%
%TO.N,HSE_OSC_IN*%
X38270000Y-74380000D03*
%TO.P,C14,2*%
%TO.N,GND*%
X38270000Y-73420000D03*
%TD*%
D32*
%TO.P,R1,1*%
%TO.N,Net-(D2-A)*%
X59800000Y-89057500D03*
%TO.P,R1,2*%
%TO.N,+3.3V*%
X59800000Y-87407500D03*
%TD*%
%TO.P,R2,1*%
%TO.N,+3.3V*%
X32700000Y-79655000D03*
%TO.P,R2,2*%
%TO.N,nRST*%
X32700000Y-78005000D03*
%TD*%
D21*
%TO.P,C10,1*%
%TO.N,+3.3VA*%
X42500000Y-78450000D03*
%TO.P,C10,2*%
%TO.N,GND*%
X42500000Y-77490000D03*
%TD*%
D10*
%TO.P,R4,1*%
%TO.N,+3.3V*%
X60420000Y-73375000D03*
%TO.P,R4,2*%
%TO.N,USB_D+*%
X60420000Y-75025000D03*
%TD*%
D13*
%TO.P,J4,1,Pin_1*%
%TO.N,+3.3V*%
X74000000Y-81500000D03*
D14*
%TO.P,J4,2,Pin_2*%
%TO.N,ISC2_SDA*%
X74000000Y-84040000D03*
%TO.P,J4,3,Pin_3*%
%TO.N,I2C2_SCL*%
X74000000Y-86580000D03*
%TO.P,J4,4,Pin_4*%
%TO.N,GND*%
X74000000Y-89120000D03*
%TD*%
D21*
%TO.P,C13,1*%
%TO.N,GND*%
X34650000Y-78980000D03*
%TO.P,C13,2*%
%TO.N,nRST*%
X34650000Y-78020000D03*
%TD*%
D33*
%TO.P,U1,1,GND*%
%TO.N,GND*%
X46750000Y-86000000D03*
%TO.P,U1,2,VO*%
%TO.N,+3.3V*%
X46750000Y-88300000D03*
D34*
X53050000Y-88300000D03*
D33*
%TO.P,U1,3,VI*%
%TO.N,Net-(U1-VI)*%
X46750000Y-90600000D03*
%TD*%
D13*
%TO.P,J1,1,Pin_1*%
%TO.N,VCC*%
X23780000Y-86590000D03*
D14*
%TO.P,J1,2,Pin_2*%
%TO.N,GND*%
X23780000Y-89130000D03*
%TD*%
D35*
%TO.P,U3,1,I/O1*%
%TO.N,USB_Conn_D-*%
X65617500Y-77270000D03*
%TO.P,U3,2,GND*%
%TO.N,GND*%
X65617500Y-76320000D03*
%TO.P,U3,3,I/O2*%
%TO.N,USB_Conn_D+*%
X65617500Y-75370000D03*
%TO.P,U3,4,I/O2*%
%TO.N,USB_D+*%
X63342500Y-75370000D03*
%TO.P,U3,5,VBUS*%
%TO.N,VBUS*%
X63342500Y-76320000D03*
%TO.P,U3,6,I/O1*%
%TO.N,USB_D-*%
X63342500Y-77270000D03*
%TD*%
D11*
%TO.P,C11,1*%
%TO.N,+3.3VA*%
X42500000Y-79600000D03*
%TO.P,C11,2*%
%TO.N,GND*%
X42500000Y-80560000D03*
%TD*%
D36*
%TO.P,D1,1,K*%
%TO.N,Net-(D1-K)*%
X31870000Y-90247500D03*
%TO.P,D1,2,A*%
%TO.N,VBUS*%
X31870000Y-86947500D03*
%TD*%
D13*
%TO.P,J5,1,Pin_1*%
%TO.N,+3.3V*%
X57600000Y-64000000D03*
D14*
%TO.P,J5,2,Pin_2*%
%TO.N,USART1_TX*%
X60140000Y-64000000D03*
%TO.P,J5,3,Pin_3*%
%TO.N,USART1_RX*%
X62680000Y-64000000D03*
%TO.P,J5,4,Pin_4*%
%TO.N,GND*%
X65220000Y-64000000D03*
%TD*%
D17*
%TO.P,C9,1*%
%TO.N,+3.3V*%
X42480000Y-73800000D03*
%TO.P,C9,2*%
%TO.N,GND*%
X41520000Y-73800000D03*
%TD*%
D13*
%TO.P,J7,1,Pin_1*%
%TO.N,GND*%
X57600000Y-94000000D03*
D14*
%TO.P,J7,2,Pin_2*%
%TO.N,PB3*%
X60140000Y-94000000D03*
%TO.P,J7,3,Pin_3*%
%TO.N,SWCLK*%
X62680000Y-94000000D03*
%TO.P,J7,4,Pin_4*%
%TO.N,SWDIO*%
X65220000Y-94000000D03*
%TO.P,J7,5,Pin_5*%
%TO.N,+3.3V*%
X67760000Y-94000000D03*
%TD*%
D37*
%TO.P,U2,1,VBAT*%
%TO.N,+3.3V*%
X44837500Y-73850000D03*
%TO.P,U2,2,PC13*%
%TO.N,unconnected-(U2-PC13-Pad2)*%
X44837500Y-74350000D03*
%TO.P,U2,3,PC14*%
%TO.N,unconnected-(U2-PC14-Pad3)*%
X44837500Y-74850000D03*
%TO.P,U2,4,PC15*%
%TO.N,unconnected-(U2-PC15-Pad4)*%
X44837500Y-75350000D03*
%TO.P,U2,5,PD0*%
%TO.N,HSE_OSC_IN*%
X44837500Y-75850000D03*
%TO.P,U2,6,PD1*%
%TO.N,HSE_OSC_OUT*%
X44837500Y-76350000D03*
%TO.P,U2,7,NRST*%
%TO.N,nRST*%
X44837500Y-76850000D03*
%TO.P,U2,8,VSSA*%
%TO.N,GND*%
X44837500Y-77350000D03*
%TO.P,U2,9,VDDA*%
%TO.N,+3.3VA*%
X44837500Y-77850000D03*
%TO.P,U2,10,PA0*%
%TO.N,ADC1_IN0*%
X44837500Y-78350000D03*
%TO.P,U2,11,PA1*%
%TO.N,Status_LED*%
X44837500Y-78850000D03*
%TO.P,U2,12,PA2*%
%TO.N,unconnected-(U2-PA2-Pad12)*%
X44837500Y-79350000D03*
D38*
%TO.P,U2,13,PA3*%
%TO.N,unconnected-(U2-PA3-Pad13)*%
X46250000Y-80762500D03*
%TO.P,U2,14,PA4*%
%TO.N,SPI1_NSS*%
X46750000Y-80762500D03*
%TO.P,U2,15,PA5*%
%TO.N,SPI1_SCK*%
X47250000Y-80762500D03*
%TO.P,U2,16,PA6*%
%TO.N,SPI1_MISO*%
X47750000Y-80762500D03*
%TO.P,U2,17,PA7*%
%TO.N,SPI1_MOSI*%
X48250000Y-80762500D03*
%TO.P,U2,18,PB0*%
%TO.N,unconnected-(U2-PB0-Pad18)*%
X48750000Y-80762500D03*
%TO.P,U2,19,PB1*%
%TO.N,unconnected-(U2-PB1-Pad19)*%
X49250000Y-80762500D03*
%TO.P,U2,20,PB2*%
%TO.N,unconnected-(U2-PB2-Pad20)*%
X49750000Y-80762500D03*
%TO.P,U2,21,PB10*%
%TO.N,I2C2_SCL*%
X50250000Y-80762500D03*
%TO.P,U2,22,PB11*%
%TO.N,ISC2_SDA*%
X50750000Y-80762500D03*
%TO.P,U2,23,VSS*%
%TO.N,GND*%
X51250000Y-80762500D03*
%TO.P,U2,24,VDD*%
%TO.N,+3.3V*%
X51750000Y-80762500D03*
D37*
%TO.P,U2,25,PB12*%
%TO.N,unconnected-(U2-PB12-Pad25)*%
X53162500Y-79350000D03*
%TO.P,U2,26,PB13*%
%TO.N,unconnected-(U2-PB13-Pad26)*%
X53162500Y-78850000D03*
%TO.P,U2,27,PB14*%
%TO.N,unconnected-(U2-PB14-Pad27)*%
X53162500Y-78350000D03*
%TO.P,U2,28,PB15*%
%TO.N,unconnected-(U2-PB15-Pad28)*%
X53162500Y-77850000D03*
%TO.P,U2,29,PA8*%
%TO.N,TIM1_CH1*%
X53162500Y-77350000D03*
%TO.P,U2,30,PA9*%
%TO.N,TIM1_CH2*%
X53162500Y-76850000D03*
%TO.P,U2,31,PA10*%
%TO.N,unconnected-(U2-PA10-Pad31)*%
X53162500Y-76350000D03*
%TO.P,U2,32,PA11*%
%TO.N,USB_D-*%
X53162500Y-75850000D03*
%TO.P,U2,33,PA12*%
%TO.N,USB_D+*%
X53162500Y-75350000D03*
%TO.P,U2,34,PA13*%
%TO.N,SWDIO*%
X53162500Y-74850000D03*
%TO.P,U2,35,VSS*%
%TO.N,GND*%
X53162500Y-74350000D03*
%TO.P,U2,36,VDD*%
%TO.N,+3.3V*%
X53162500Y-73850000D03*
D38*
%TO.P,U2,37,PA14*%
%TO.N,SWCLK*%
X51750000Y-72437500D03*
%TO.P,U2,38,PA15*%
%TO.N,unconnected-(U2-PA15-Pad38)*%
X51250000Y-72437500D03*
%TO.P,U2,39,PB3*%
%TO.N,PB3*%
X50750000Y-72437500D03*
%TO.P,U2,40,PB4*%
%TO.N,PB4*%
X50250000Y-72437500D03*
%TO.P,U2,41,PB5*%
%TO.N,PB5*%
X49750000Y-72437500D03*
%TO.P,U2,42,PB6*%
%TO.N,PB6*%
X49250000Y-72437500D03*
%TO.P,U2,43,PB7*%
%TO.N,USART1_RX*%
X48750000Y-72437500D03*
%TO.P,U2,44,BOOT0*%
%TO.N,BOOT0*%
X48250000Y-72437500D03*
%TO.P,U2,45,PB8*%
%TO.N,USART1_TX*%
X47750000Y-72437500D03*
%TO.P,U2,46,PB9*%
%TO.N,unconnected-(U2-PB9-Pad46)*%
X47250000Y-72437500D03*
%TO.P,U2,47,VSS*%
%TO.N,GND*%
X46750000Y-72437500D03*
%TO.P,U2,48,VDD*%
%TO.N,+3.3V*%
X46250000Y-72437500D03*
%TD*%
D39*
%TO.N,GND*%
X51699500Y-74512998D03*
X37880000Y-81250000D03*
X32690000Y-84240000D03*
X27780000Y-91650000D03*
X32290000Y-74250000D03*
X39300000Y-77190000D03*
X58420000Y-88240000D03*
X53080000Y-64020000D03*
X45000000Y-89280000D03*
X43530000Y-86990000D03*
X34210000Y-86880000D03*
X46990000Y-68830000D03*
X37860000Y-86610000D03*
X41160000Y-77910000D03*
X39720000Y-73930000D03*
X27330000Y-74770000D03*
X68750000Y-71690000D03*
X71580000Y-91680000D03*
X41495023Y-81565023D03*
X35670000Y-78890000D03*
X48880000Y-87110000D03*
X51250000Y-79160000D03*
X45410000Y-94010000D03*
X55050000Y-92020000D03*
X48810000Y-86020000D03*
X46400000Y-77230000D03*
X32660000Y-82920000D03*
X64510000Y-73950000D03*
X38000000Y-75410000D03*
X54870000Y-93990000D03*
X63790000Y-87440000D03*
X67770000Y-64000000D03*
%TO.N,+3.3V*%
X53070000Y-94170000D03*
X32690000Y-81490000D03*
X65660000Y-79210000D03*
X61890000Y-72830000D03*
X66780000Y-86610000D03*
X32100000Y-69600000D03*
%TO.N,VBUS*%
X29720000Y-86120000D03*
X70620000Y-85460000D03*
X26500000Y-91930000D03*
X70610000Y-79740000D03*
%TO.N,PB3*%
X56340000Y-71670000D03*
X52180339Y-70730161D03*
X69050000Y-85470000D03*
%TO.N,PB4*%
X50630000Y-70589500D03*
%TO.N,PB5*%
X49750000Y-74970000D03*
%TO.N,PB6*%
X49000500Y-74160000D03*
X38460000Y-66900000D03*
X41240000Y-66890000D03*
%TO.N,SWCLK*%
X51614750Y-75585250D03*
X62680000Y-92170000D03*
%TO.N,SWDIO*%
X65240000Y-92190000D03*
X56890000Y-74090000D03*
%TO.N,BOOT0*%
X46550000Y-75760000D03*
X31960000Y-70850000D03*
%TO.N,ISC2_SDA*%
X49790000Y-78690000D03*
X54720000Y-80970000D03*
%TO.N,I2C2_SCL*%
X49830000Y-83350500D03*
X54790000Y-82240000D03*
%TO.N,ADC1_IN0*%
X43540000Y-71950000D03*
X47670000Y-76440000D03*
X43930000Y-65750000D03*
%TO.N,TIM1_CH1*%
X55310000Y-77760000D03*
%TO.N,TIM1_CH2*%
X50980000Y-76620000D03*
X46975516Y-67830602D03*
%TO.N,SPI1_NSS*%
X32540000Y-92180000D03*
X46610000Y-78980000D03*
%TO.N,SPI1_SCK*%
X46999500Y-82480016D03*
X35120000Y-92170000D03*
%TO.N,SPI1_MISO*%
X37590000Y-92200000D03*
X47750000Y-83350500D03*
%TO.N,SPI1_MOSI*%
X48370000Y-84850000D03*
X40220000Y-92170000D03*
%TO.N,Status_LED*%
X40441051Y-84089500D03*
X43630000Y-80490000D03*
%TD*%
D40*
%TO.N,Net-(D1-K)*%
X37297500Y-90190000D02*
X37317500Y-90210000D01*
X28980000Y-89955000D02*
X31577500Y-89955000D01*
X31870000Y-90247500D02*
X34882500Y-90247500D01*
X31577500Y-89955000D02*
X31870000Y-90247500D01*
X34882500Y-90247500D02*
X34940000Y-90190000D01*
X34940000Y-90190000D02*
X37297500Y-90190000D01*
%TO.N,GND*%
X23780000Y-89130000D02*
X26255000Y-89130000D01*
X53060000Y-64000000D02*
X53080000Y-64020000D01*
X68760000Y-71700000D02*
X68750000Y-71690000D01*
X31615000Y-81875000D02*
X32660000Y-82920000D01*
D41*
X46980000Y-70560000D02*
X46980000Y-68840000D01*
D40*
X34940000Y-88290000D02*
X34940000Y-87610000D01*
X35580000Y-78980000D02*
X35670000Y-78890000D01*
X27080000Y-89955000D02*
X27080000Y-90950000D01*
X54880000Y-94000000D02*
X54870000Y-93990000D01*
X36470000Y-75630000D02*
X37780000Y-75630000D01*
D41*
X51699500Y-74512998D02*
X51862498Y-74350000D01*
D40*
X23830000Y-73890000D02*
X26450000Y-73890000D01*
X65010000Y-76320000D02*
X64505000Y-75815000D01*
X32340000Y-74300000D02*
X32290000Y-74250000D01*
X46750000Y-86000000D02*
X48790000Y-86000000D01*
D41*
X42500000Y-77490000D02*
X41580000Y-77490000D01*
D40*
X37210000Y-80580000D02*
X37880000Y-81250000D01*
D41*
X51060000Y-82610000D02*
X51060000Y-81960000D01*
D40*
X41495023Y-81565023D02*
X41495023Y-81254977D01*
X42190000Y-80560000D02*
X42500000Y-80560000D01*
D41*
X43480000Y-77350000D02*
X43340000Y-77490000D01*
D40*
X38515000Y-87265000D02*
X37860000Y-86610000D01*
X27080000Y-90950000D02*
X27780000Y-91650000D01*
X62350000Y-87462500D02*
X63767500Y-87462500D01*
X71580000Y-91230000D02*
X73690000Y-89120000D01*
D41*
X44837500Y-77350000D02*
X43480000Y-77350000D01*
X51862498Y-74350000D02*
X53162500Y-74350000D01*
D40*
X44390000Y-89280000D02*
X44020000Y-89650000D01*
X65220000Y-64000000D02*
X67770000Y-64000000D01*
X41810000Y-87265000D02*
X38515000Y-87265000D01*
D41*
X46280000Y-77350000D02*
X46400000Y-77230000D01*
D40*
X43255000Y-87265000D02*
X43530000Y-86990000D01*
X54880000Y-91850000D02*
X55050000Y-92020000D01*
X45000000Y-89280000D02*
X44390000Y-89280000D01*
X39720000Y-72480000D02*
X40410000Y-71790000D01*
X39720000Y-73930000D02*
X39720000Y-72480000D01*
X65617500Y-76320000D02*
X65010000Y-76320000D01*
X39210000Y-73420000D02*
X39720000Y-73930000D01*
X54880000Y-91010000D02*
X54880000Y-91850000D01*
X48880000Y-87110000D02*
X48870000Y-87100000D01*
X58420000Y-88240000D02*
X58420000Y-88870000D01*
X36200000Y-75900000D02*
X36470000Y-75630000D01*
X71580000Y-91680000D02*
X71580000Y-91230000D01*
D41*
X51060000Y-81960000D02*
X51250000Y-81770000D01*
D40*
X64505000Y-73955000D02*
X64510000Y-73950000D01*
X55555000Y-90335000D02*
X54880000Y-91010000D01*
X45400000Y-94000000D02*
X45410000Y-94010000D01*
X36900000Y-80580000D02*
X37210000Y-80580000D01*
X73690000Y-89120000D02*
X74000000Y-89120000D01*
X38270000Y-73420000D02*
X39210000Y-73420000D01*
D41*
X46980000Y-68840000D02*
X46990000Y-68830000D01*
D40*
X42700000Y-94000000D02*
X45400000Y-94000000D01*
D41*
X46750000Y-72437500D02*
X46750000Y-71510000D01*
D40*
X34000000Y-74300000D02*
X32340000Y-74300000D01*
X37780000Y-75630000D02*
X38000000Y-75410000D01*
X34940000Y-87610000D02*
X34210000Y-86880000D01*
X58420000Y-88870000D02*
X56955000Y-90335000D01*
D41*
X53162500Y-74350000D02*
X55080000Y-74350000D01*
D40*
X63767500Y-87462500D02*
X63790000Y-87440000D01*
X71300000Y-71700000D02*
X68760000Y-71700000D01*
X30000000Y-81875000D02*
X31615000Y-81875000D01*
X48790000Y-86000000D02*
X48810000Y-86020000D01*
X39850000Y-73800000D02*
X39720000Y-73930000D01*
X34650000Y-78980000D02*
X35580000Y-78980000D01*
D41*
X43340000Y-77490000D02*
X42500000Y-77490000D01*
D40*
X57600000Y-94000000D02*
X54880000Y-94000000D01*
X39090000Y-77400000D02*
X39300000Y-77190000D01*
X33490000Y-85040000D02*
X32690000Y-84240000D01*
D41*
X44837500Y-77350000D02*
X46280000Y-77350000D01*
D40*
X26255000Y-89130000D02*
X27080000Y-89955000D01*
X64505000Y-75815000D02*
X64505000Y-73955000D01*
X46750000Y-87100000D02*
X46750000Y-86000000D01*
D41*
X46980000Y-71280000D02*
X46980000Y-70560000D01*
D40*
X34162500Y-85040000D02*
X33490000Y-85040000D01*
X41495023Y-81254977D02*
X42190000Y-80560000D01*
D41*
X55080000Y-74350000D02*
X55290000Y-74140000D01*
D40*
X41520000Y-73800000D02*
X39850000Y-73800000D01*
D41*
X41580000Y-77490000D02*
X41160000Y-77910000D01*
X46750000Y-71510000D02*
X46980000Y-71280000D01*
D40*
X50320000Y-64000000D02*
X53060000Y-64000000D01*
X56955000Y-90335000D02*
X56060000Y-90335000D01*
X48870000Y-87100000D02*
X46750000Y-87100000D01*
D41*
X51250000Y-80762500D02*
X51250000Y-79160000D01*
D40*
X38230000Y-77400000D02*
X39090000Y-77400000D01*
X26450000Y-73890000D02*
X27330000Y-74770000D01*
X41810000Y-87265000D02*
X43255000Y-87265000D01*
X56060000Y-90335000D02*
X55555000Y-90335000D01*
D41*
X51250000Y-80762500D02*
X51250000Y-81770000D01*
D40*
%TO.N,Net-(U1-VI)*%
X44020000Y-90610000D02*
X46740000Y-90610000D01*
X39442500Y-90210000D02*
X41805000Y-90210000D01*
X41805000Y-90210000D02*
X41810000Y-90215000D01*
X42205000Y-90610000D02*
X44020000Y-90610000D01*
X46740000Y-90610000D02*
X46750000Y-90600000D01*
X41810000Y-90215000D02*
X42205000Y-90610000D01*
D41*
%TO.N,+3.3V*%
X53162500Y-73850000D02*
X53832500Y-73180000D01*
D40*
X59760000Y-72765000D02*
X55705000Y-72765000D01*
X32100000Y-69600000D02*
X32190000Y-69690000D01*
D41*
X53050000Y-94150000D02*
X53070000Y-94170000D01*
X53832500Y-73180000D02*
X55290000Y-73180000D01*
D40*
X67760000Y-87590000D02*
X67760000Y-94000000D01*
X32700000Y-81480000D02*
X32690000Y-81490000D01*
X65910000Y-85740000D02*
X66780000Y-86610000D01*
X32700000Y-79655000D02*
X33405000Y-80360000D01*
X65650000Y-79220000D02*
X65660000Y-79210000D01*
X44520000Y-72400000D02*
X44520000Y-71670000D01*
X46750000Y-88300000D02*
X46500000Y-88300000D01*
X30000000Y-64000000D02*
X30000000Y-61790000D01*
X35410000Y-83240000D02*
X35410000Y-80360000D01*
D41*
X46250000Y-71600000D02*
X46020000Y-71370000D01*
X53050000Y-88300000D02*
X53050000Y-94150000D01*
D40*
X40210000Y-69690000D02*
X42310000Y-71790000D01*
X32700000Y-79655000D02*
X32700000Y-81480000D01*
X61295000Y-73425000D02*
X60420000Y-73425000D01*
X36920000Y-79600000D02*
X36900000Y-79620000D01*
D41*
X52000000Y-81970000D02*
X52000000Y-82590000D01*
D40*
X61467500Y-85740000D02*
X65910000Y-85740000D01*
X61890000Y-72830000D02*
X61295000Y-73425000D01*
X59800000Y-87407500D02*
X61467500Y-85740000D01*
X53965000Y-87385000D02*
X53050000Y-88300000D01*
X60390000Y-80495000D02*
X57310000Y-80495000D01*
X70617918Y-81500000D02*
X74000000Y-81500000D01*
D41*
X51750000Y-81720000D02*
X52000000Y-81970000D01*
D40*
X30000000Y-61790000D02*
X29990000Y-61780000D01*
X56060000Y-87385000D02*
X59777500Y-87385000D01*
D41*
X46250000Y-72437500D02*
X46250000Y-71600000D01*
D40*
X65650000Y-80460000D02*
X65650000Y-79220000D01*
X56060000Y-87385000D02*
X53965000Y-87385000D01*
X46500000Y-88300000D02*
X41440000Y-83240000D01*
D41*
X46020000Y-71370000D02*
X46020000Y-70560000D01*
D40*
X42310000Y-73630000D02*
X42480000Y-73800000D01*
X46750000Y-88300000D02*
X53050000Y-88300000D01*
X69577918Y-80460000D02*
X70617918Y-81500000D01*
D41*
X44837500Y-73850000D02*
X42530000Y-73850000D01*
D40*
X42310000Y-71932082D02*
X43267918Y-72890000D01*
X65650000Y-80460000D02*
X69577918Y-80460000D01*
X60425000Y-80460000D02*
X65650000Y-80460000D01*
X35410000Y-80360000D02*
X36150000Y-79620000D01*
D41*
X52020000Y-82610000D02*
X53050000Y-83640000D01*
D40*
X44520000Y-71670000D02*
X45630000Y-70560000D01*
D41*
X53050000Y-83640000D02*
X53050000Y-88300000D01*
D40*
X57310000Y-80495000D02*
X57280000Y-80525000D01*
X66780000Y-86610000D02*
X67760000Y-87590000D01*
X44030000Y-72890000D02*
X44520000Y-72400000D01*
D41*
X52000000Y-82590000D02*
X52020000Y-82610000D01*
D40*
X43267918Y-72890000D02*
X44030000Y-72890000D01*
D41*
X51750000Y-80762500D02*
X51750000Y-81720000D01*
D40*
X33405000Y-80360000D02*
X35410000Y-80360000D01*
X59777500Y-87385000D02*
X59800000Y-87407500D01*
X29990000Y-61780000D02*
X55380000Y-61780000D01*
X41440000Y-83240000D02*
X35410000Y-83240000D01*
X42310000Y-71790000D02*
X42310000Y-73630000D01*
X36150000Y-79620000D02*
X36900000Y-79620000D01*
X55705000Y-72765000D02*
X55290000Y-73180000D01*
X55380000Y-61780000D02*
X57600000Y-64000000D01*
X60420000Y-73425000D02*
X59760000Y-72765000D01*
X32190000Y-69690000D02*
X40210000Y-69690000D01*
X45630000Y-70560000D02*
X46020000Y-70560000D01*
X42310000Y-71790000D02*
X42310000Y-71932082D01*
X38637500Y-79600000D02*
X36920000Y-79600000D01*
D41*
%TO.N,+3.3VA*%
X43330000Y-78450000D02*
X42500000Y-78450000D01*
D40*
X40762500Y-79600000D02*
X42500000Y-79600000D01*
D41*
X43930000Y-77850000D02*
X43330000Y-78450000D01*
X42500000Y-78450000D02*
X42500000Y-79600000D01*
X44837500Y-77850000D02*
X43930000Y-77850000D01*
%TO.N,nRST*%
X30000000Y-78125000D02*
X32580000Y-78125000D01*
X39240000Y-78330000D02*
X36170661Y-78330000D01*
X34635000Y-78005000D02*
X34650000Y-78020000D01*
X35980661Y-78140000D02*
X34770000Y-78140000D01*
X44837500Y-76850000D02*
X40720000Y-76850000D01*
X32700000Y-78005000D02*
X34635000Y-78005000D01*
X32580000Y-78125000D02*
X32700000Y-78005000D01*
X36170661Y-78330000D02*
X35980661Y-78140000D01*
X34770000Y-78140000D02*
X34650000Y-78020000D01*
X40720000Y-76850000D02*
X39240000Y-78330000D01*
%TO.N,HSE_OSC_IN*%
X36200000Y-74300000D02*
X38190000Y-74300000D01*
X39740000Y-75850000D02*
X44837500Y-75850000D01*
X38270000Y-74380000D02*
X39740000Y-75850000D01*
X38190000Y-74300000D02*
X38270000Y-74380000D01*
%TO.N,HSE_OSC_OUT*%
X34000000Y-75900000D02*
X35090000Y-76990000D01*
X38230000Y-76440000D02*
X38320000Y-76350000D01*
X35090000Y-76990000D02*
X37340000Y-76990000D01*
X37890000Y-76440000D02*
X38230000Y-76440000D01*
X37340000Y-76990000D02*
X37890000Y-76440000D01*
X38320000Y-76350000D02*
X44837500Y-76350000D01*
D40*
%TO.N,VBUS*%
X27100000Y-96390000D02*
X70640000Y-96390000D01*
X70610000Y-74990000D02*
X70610000Y-77950000D01*
X70640000Y-96390000D02*
X70620000Y-96370000D01*
X63903528Y-76320000D02*
X64505000Y-76921472D01*
X63342500Y-76320000D02*
X63903528Y-76320000D01*
X27060000Y-92490000D02*
X27060000Y-96430000D01*
X29720000Y-86120000D02*
X31042500Y-86120000D01*
X70620000Y-96370000D02*
X70620000Y-85460000D01*
X31042500Y-86120000D02*
X31870000Y-86947500D01*
X71300000Y-74300000D02*
X70610000Y-74990000D01*
X64830000Y-78020000D02*
X70540000Y-78020000D01*
X64505000Y-77695000D02*
X64830000Y-78020000D01*
X70540000Y-78020000D02*
X70610000Y-77950000D01*
X64505000Y-76921472D02*
X64505000Y-77695000D01*
X26500000Y-91930000D02*
X27060000Y-92490000D01*
X70610000Y-77950000D02*
X70610000Y-79740000D01*
%TO.N,Net-(D2-A)*%
X59800000Y-89057500D02*
X62330000Y-89057500D01*
X62330000Y-89057500D02*
X62350000Y-89037500D01*
D41*
%TO.N,Net-(D3-A)*%
X35757500Y-85020000D02*
X35737500Y-85040000D01*
X37575000Y-85020000D02*
X35757500Y-85020000D01*
D40*
%TO.N,VCC*%
X26210000Y-86580000D02*
X27710000Y-88080000D01*
X23780000Y-86590000D02*
X26200000Y-86590000D01*
X26200000Y-86590000D02*
X26210000Y-86580000D01*
X27710000Y-88080000D02*
X28030000Y-88080000D01*
D41*
%TO.N,Net-(J2-Pin_2)*%
X23865000Y-71385000D02*
X23830000Y-71350000D01*
X29540000Y-71385000D02*
X23865000Y-71385000D01*
D42*
%TO.N,USB_Conn_D-*%
X70362499Y-73650000D02*
X70262499Y-73550000D01*
X66316396Y-76920000D02*
X65967500Y-76920000D01*
X70262499Y-73550000D02*
X69337500Y-73550000D01*
X71300000Y-73650000D02*
X70362499Y-73650000D01*
X65967500Y-76920000D02*
X65617500Y-77270000D01*
X66580000Y-76656396D02*
X66316396Y-76920000D01*
X69337500Y-73550000D02*
X66580000Y-76307500D01*
X66580000Y-76307500D02*
X66580000Y-76656396D01*
%TO.N,USB_Conn_D+*%
X69151103Y-73100000D02*
X66881103Y-75370000D01*
X70362499Y-73000000D02*
X70262499Y-73100000D01*
X66881103Y-75370000D02*
X65617500Y-75370000D01*
X71300000Y-73000000D02*
X70362499Y-73000000D01*
X70262499Y-73100000D02*
X69151103Y-73100000D01*
D41*
%TO.N,PB3*%
X60420000Y-95550000D02*
X69070000Y-95550000D01*
X52180339Y-70730161D02*
X53120178Y-71670000D01*
X60140000Y-94000000D02*
X60140000Y-95270000D01*
D43*
X69070000Y-85490000D02*
X69050000Y-85470000D01*
D41*
X53120178Y-71670000D02*
X56340000Y-71670000D01*
X69070000Y-95550000D02*
X69070000Y-85490000D01*
X51550000Y-70730161D02*
X50750000Y-71530161D01*
X50750000Y-71530161D02*
X50750000Y-72437500D01*
X52180339Y-70730161D02*
X51550000Y-70730161D01*
X60140000Y-95270000D02*
X60420000Y-95550000D01*
%TO.N,PB4*%
X50630000Y-70860000D02*
X50630000Y-70589500D01*
X50250000Y-72437500D02*
X50250000Y-71240000D01*
X50250000Y-71240000D02*
X50630000Y-70860000D01*
%TO.N,PB5*%
X49750000Y-74970000D02*
X49750000Y-72437500D01*
%TO.N,PB6*%
X49250000Y-73910500D02*
X49000500Y-74160000D01*
X41240000Y-66890000D02*
X41230000Y-66900000D01*
X41230000Y-66900000D02*
X38460000Y-66900000D01*
X49250000Y-72437500D02*
X49250000Y-73910500D01*
%TO.N,unconnected-(U2-PA3-Pad13)*%
X46249500Y-80763000D02*
X46250000Y-80762500D01*
%TO.N,SWCLK*%
X50950000Y-74920500D02*
X50950000Y-74076041D01*
X62680000Y-94000000D02*
X62680000Y-92170000D01*
X51614750Y-75585250D02*
X50950000Y-74920500D01*
X50950000Y-74076041D02*
X51750000Y-73276041D01*
X51750000Y-73276041D02*
X51750000Y-72437500D01*
%TO.N,SWDIO*%
X65220000Y-94000000D02*
X65220000Y-92210000D01*
X56130000Y-74850000D02*
X53162500Y-74850000D01*
X56890000Y-74090000D02*
X56130000Y-74850000D01*
X65220000Y-92210000D02*
X65240000Y-92190000D01*
%TO.N,BOOT0*%
X48250000Y-72437500D02*
X48250000Y-74060000D01*
X30845000Y-69735000D02*
X29540000Y-69735000D01*
X31960000Y-70850000D02*
X30845000Y-69735000D01*
X48250000Y-74060000D02*
X46550000Y-75760000D01*
D42*
%TO.N,USB_D+*%
X63322500Y-75350000D02*
X63342500Y-75370000D01*
X60420000Y-75350000D02*
X63322500Y-75350000D01*
X53162500Y-75350000D02*
X60420000Y-75350000D01*
%TO.N,USB_D-*%
X62168050Y-75850000D02*
X62168050Y-76444446D01*
X53162500Y-75850000D02*
X62168050Y-75850000D01*
X62168050Y-76444446D02*
X62993604Y-77270000D01*
X62993604Y-77270000D02*
X63342500Y-77270000D01*
D41*
%TO.N,ISC2_SDA*%
X72650000Y-84040000D02*
X74000000Y-84040000D01*
X60390000Y-82145000D02*
X70755000Y-82145000D01*
X49790000Y-79320000D02*
X50060000Y-79590000D01*
X50750000Y-79923959D02*
X50750000Y-80762500D01*
X70755000Y-82145000D02*
X72650000Y-84040000D01*
X55175000Y-81425000D02*
X59670000Y-81425000D01*
X59670000Y-81425000D02*
X60390000Y-82145000D01*
X50060000Y-79590000D02*
X50416041Y-79590000D01*
X50416041Y-79590000D02*
X50750000Y-79923959D01*
X54720000Y-80970000D02*
X55175000Y-81425000D01*
X49790000Y-78690000D02*
X49790000Y-79320000D01*
%TO.N,I2C2_SCL*%
X70820000Y-83400000D02*
X74000000Y-86580000D01*
X57215000Y-82240000D02*
X57280000Y-82175000D01*
X57280000Y-82175000D02*
X58505000Y-83400000D01*
X49840000Y-82011041D02*
X50250000Y-81601041D01*
X50250000Y-81601041D02*
X50250000Y-80762500D01*
X54790000Y-82240000D02*
X57215000Y-82240000D01*
X49840000Y-82011041D02*
X49840000Y-83340500D01*
X49840000Y-83340500D02*
X49830000Y-83350500D01*
X58505000Y-83400000D02*
X70820000Y-83400000D01*
%TO.N,USART1_TX*%
X52563959Y-65386041D02*
X47750000Y-70200000D01*
X47750000Y-70200000D02*
X47750000Y-72437500D01*
X60140000Y-64000000D02*
X58753959Y-65386041D01*
X58753959Y-65386041D02*
X52563959Y-65386041D01*
%TO.N,USART1_RX*%
X48750000Y-72437500D02*
X48750000Y-69950000D01*
X52640000Y-66060000D02*
X60620000Y-66060000D01*
X48750000Y-69950000D02*
X52640000Y-66060000D01*
X60620000Y-66060000D02*
X62680000Y-64000000D01*
%TO.N,ADC1_IN0*%
X43540000Y-71950000D02*
X43930000Y-71560000D01*
X43930000Y-71560000D02*
X43930000Y-65750000D01*
X47670000Y-77140000D02*
X46580000Y-78230000D01*
X46179339Y-78350000D02*
X44837500Y-78350000D01*
X46580000Y-78230000D02*
X46299339Y-78230000D01*
X47670000Y-76440000D02*
X47670000Y-77140000D01*
X46299339Y-78230000D02*
X46179339Y-78350000D01*
%TO.N,TIM1_CH1*%
X55310000Y-77760000D02*
X54900000Y-77350000D01*
X54900000Y-77350000D02*
X53162500Y-77350000D01*
%TO.N,TIM1_CH2*%
X46960000Y-64820000D02*
X47780000Y-64000000D01*
X46975516Y-67830602D02*
X46960000Y-67815086D01*
X46960000Y-67815086D02*
X46960000Y-64820000D01*
X51210000Y-76850000D02*
X53162500Y-76850000D01*
X50980000Y-76620000D02*
X51210000Y-76850000D01*
%TO.N,SPI1_NSS*%
X32540000Y-94000000D02*
X32540000Y-92180000D01*
X46610000Y-78980000D02*
X46750000Y-79120000D01*
X46750000Y-79120000D02*
X46750000Y-80762500D01*
%TO.N,SPI1_SCK*%
X46999500Y-82480016D02*
X47250000Y-82229516D01*
X35080000Y-94000000D02*
X35080000Y-92210000D01*
X35080000Y-92210000D02*
X35120000Y-92170000D01*
X47250000Y-82229516D02*
X47250000Y-80762500D01*
%TO.N,SPI1_MISO*%
X37620000Y-92230000D02*
X37590000Y-92200000D01*
X47750000Y-83350500D02*
X47750000Y-80762500D01*
X37620000Y-94000000D02*
X37620000Y-92230000D01*
%TO.N,SPI1_MOSI*%
X48250000Y-81601041D02*
X48250000Y-80762500D01*
X48590000Y-84630000D02*
X48590000Y-81941041D01*
X40160000Y-92230000D02*
X40220000Y-92170000D01*
X48370000Y-84850000D02*
X48590000Y-84630000D01*
X40160000Y-94000000D02*
X40160000Y-92230000D01*
X48590000Y-81941041D02*
X48250000Y-81601041D01*
%TO.N,Status_LED*%
X43630000Y-79218959D02*
X43630000Y-80490000D01*
X43998959Y-78850000D02*
X43630000Y-79218959D01*
X40441051Y-84089500D02*
X39510551Y-85020000D01*
X44837500Y-78850000D02*
X43998959Y-78850000D01*
X39510551Y-85020000D02*
X39225000Y-85020000D01*
%TD*%
M02*
